<svg id="visual" viewBox="0 0 900 600" width="900" height="600" xmlns="http://www.w3.org/2000/svg" xmlns:xlink="http://www.w3.org/1999/xlink" version="1.1"><rect x="0" y="0" width="900" height="600" fill="#FFFFFF"></rect><defs><linearGradient id="grad1_0" x1="33.3%" y1="0%" x2="100%" y2="100%"><stop offset="20%" stop-color="#fdb9b5" stop-opacity="1"></stop><stop offset="80%" stop-color="#fdb9b5" stop-opacity="1"></stop></linearGradient></defs><defs><linearGradient id="grad1_1" x1="33.3%" y1="0%" x2="100%" y2="100%"><stop offset="20%" stop-color="#fdb9b5" stop-opacity="1"></stop><stop offset="80%" stop-color="#ffd0cd" stop-opacity="1"></stop></linearGradient></defs><defs><linearGradient id="grad1_2" x1="33.3%" y1="0%" x2="100%" y2="100%"><stop offset="20%" stop-color="#ffe8e6" stop-opacity="1"></stop><stop offset="80%" stop-color="#ffd0cd" stop-opacity="1"></stop></linearGradient></defs><defs><linearGradient id="grad1_3" x1="33.3%" y1="0%" x2="100%" y2="100%"><stop offset="20%" stop-color="#ffe8e6" stop-opacity="1"></stop><stop offset="80%" stop-color="#ffffff" stop-opacity="1"></stop></linearGradient></defs><defs><linearGradient id="grad2_0" x1="0%" y1="0%" x2="66.7%" y2="100%"><stop offset="20%" stop-color="#fdb9b5" stop-opacity="1"></stop><stop offset="80%" stop-color="#fdb9b5" stop-opacity="1"></stop></linearGradient></defs><defs><linearGradient id="grad2_1" x1="0%" y1="0%" x2="66.7%" y2="100%"><stop offset="20%" stop-color="#ffd0cd" stop-opacity="1"></stop><stop offset="80%" stop-color="#fdb9b5" stop-opacity="1"></stop></linearGradient></defs><defs><linearGradient id="grad2_2" x1="0%" y1="0%" x2="66.7%" y2="100%"><stop offset="20%" stop-color="#ffd0cd" stop-opacity="1"></stop><stop offset="80%" stop-color="#ffe8e6" stop-opacity="1"></stop></linearGradient></defs><defs><linearGradient id="grad2_3" x1="0%" y1="0%" x2="66.7%" y2="100%"><stop offset="20%" stop-color="#ffffff" stop-opacity="1"></stop><stop offset="80%" stop-color="#ffe8e6" stop-opacity="1"></stop></linearGradient></defs><g transform="translate(900, 0)"><path d="M0 486.7C-62.9 480 -125.7 473.2 -186.3 449.7C-246.8 426.2 -305 385.9 -333 333C-361.1 280.2 -359.1 214.9 -379.7 157.3C-400.3 99.7 -443.5 49.8 -486.7 0L0 0Z" fill="#fff3f2"></path><path d="M0 365.1C-47.2 360 -94.3 354.9 -139.7 337.3C-185.1 319.6 -228.7 289.4 -249.8 249.8C-270.8 210.2 -269.3 161.2 -284.8 118C-300.2 74.8 -332.6 37.4 -365.1 0L0 0Z" fill="#ffdcd9"></path><path d="M0 243.4C-31.4 240 -62.9 236.6 -93.1 224.8C-123.4 213.1 -152.5 192.9 -166.5 166.5C-180.6 140.1 -179.6 107.4 -189.9 78.6C-200.2 49.8 -221.8 24.9 -243.4 0L0 0Z" fill="#fec5c1"></path><path d="M0 121.7C-15.7 120 -31.4 118.3 -46.6 112.4C-61.7 106.5 -76.2 96.5 -83.3 83.3C-90.3 70.1 -89.8 53.7 -94.9 39.3C-100.1 24.9 -110.9 12.5 -121.7 0L0 0Z" fill="#fdb9b5"></path></g><g transform="translate(0, 600)"><path d="M0 -486.7C63.3 -466.8 126.6 -446.9 170.3 -411.1C214 -375.4 238.2 -323.7 287.8 -287.8C337.4 -251.9 412.3 -231.6 449.7 -186.3C487.1 -140.9 486.9 -70.5 486.7 0L0 0Z" fill="#fff3f2"></path><path d="M0 -365.1C47.5 -350.1 94.9 -335.2 127.7 -308.3C160.5 -281.5 178.7 -242.8 215.8 -215.8C253 -188.9 309.2 -173.7 337.3 -139.7C365.3 -105.7 365.2 -52.8 365.1 0L0 0Z" fill="#ffdcd9"></path><path d="M0 -243.4C31.6 -233.4 63.3 -223.5 85.1 -205.6C107 -187.7 119.1 -161.9 143.9 -143.9C168.7 -125.9 206.2 -115.8 224.8 -93.1C243.5 -70.5 243.5 -35.2 243.4 0L0 0Z" fill="#fec5c1"></path><path d="M0 -121.7C15.8 -116.7 31.6 -111.7 42.6 -102.8C53.5 -93.8 59.6 -80.9 71.9 -71.9C84.3 -63 103.1 -57.9 112.4 -46.6C121.8 -35.2 121.7 -17.6 121.7 0L0 0Z" fill="#fdb9b5"></path></g></svg>