<svg xmlns="http://www.w3.org/2000/svg" xmlns:xlink="http://www.w3.org/1999/xlink" id="visual" version="1.1" viewBox="0 282.35 900 318.65"><path d="M0 296L21.5 309.5C43 323 86 350 128.8 343.8C171.7 337.7 214.3 298.3 257.2 286.5C300 274.7 343 290.3 385.8 305.3C428.7 320.3 471.3 334.7 514.2 346.8C557 359 600 369 642.8 365.8C685.7 362.7 728.3 346.3 771.2 347.5C814 348.7 857 367.3 878.5 376.7L900 386L900 601L878.5 601C857 601 814 601 771.2 601C728.3 601 685.7 601 642.8 601C600 601 557 601 514.2 601C471.3 601 428.7 601 385.8 601C343 601 300 601 257.2 601C214.3 601 171.7 601 128.8 601C86 601 43 601 21.5 601L0 601Z" fill="#f07a7f"/><path d="M0 377L21.5 379.8C43 382.7 86 388.3 128.8 388.2C171.7 388 214.3 382 257.2 383C300 384 343 392 385.8 395.3C428.7 398.7 471.3 397.3 514.2 386.2C557 375 600 354 642.8 353C685.7 352 728.3 371 771.2 373.7C814 376.3 857 362.7 878.5 355.8L900 349L900 601L878.5 601C857 601 814 601 771.2 601C728.3 601 685.7 601 642.8 601C600 601 557 601 514.2 601C471.3 601 428.7 601 385.8 601C343 601 300 601 257.2 601C214.3 601 171.7 601 128.8 601C86 601 43 601 21.5 601L0 601Z" fill="#e75a62"/><path d="M0 397L21.5 398.3C43 399.7 86 402.3 128.8 402C171.7 401.7 214.3 398.3 257.2 406.2C300 414 343 433 385.8 439.7C428.7 446.3 471.3 440.7 514.2 433.2C557 425.7 600 416.3 642.8 417C685.7 417.7 728.3 428.3 771.2 431.3C814 434.3 857 429.7 878.5 427.3L900 425L900 601L878.5 601C857 601 814 601 771.2 601C728.3 601 685.7 601 642.8 601C600 601 557 601 514.2 601C471.3 601 428.7 601 385.8 601C343 601 300 601 257.2 601C214.3 601 171.7 601 128.8 601C86 601 43 601 21.5 601L0 601Z" fill="#dc3545"/><path d="M0 455L21.5 458.7C43 462.3 86 469.7 128.8 470.7C171.7 471.7 214.3 466.3 257.2 471.7C300 477 343 493 385.8 500C428.7 507 471.3 505 514.2 499.7C557 494.3 600 485.7 642.8 481.7C685.7 477.7 728.3 478.3 771.2 483.3C814 488.3 857 497.7 878.5 502.3L900 507L900 601L878.5 601C857 601 814 601 771.2 601C728.3 601 685.7 601 642.8 601C600 601 557 601 514.2 601C471.3 601 428.7 601 385.8 601C343 601 300 601 257.2 601C214.3 601 171.7 601 128.8 601C86 601 43 601 21.5 601L0 601Z" fill="#bf2d3d"/><path d="M0 525L21.5 530C43 535 86 545 128.8 544.2C171.7 543.3 214.3 531.7 257.2 521.8C300 512 343 504 385.8 502.8C428.7 501.7 471.3 507.3 514.2 515C557 522.7 600 532.3 642.8 536C685.7 539.7 728.3 537.3 771.2 532.7C814 528 857 521 878.5 517.5L900 514L900 601L878.5 601C857 601 814 601 771.2 601C728.3 601 685.7 601 642.8 601C600 601 557 601 514.2 601C471.3 601 428.7 601 385.8 601C343 601 300 601 257.2 601C214.3 601 171.7 601 128.8 601C86 601 43 601 21.5 601L0 601Z" fill="#a22534"/></svg>